<svg viewBox="0 0 24 24" fill="none" xmlns="http://www.w3.org/2000/svg" width="24" height="24" data-testid="clock" class="About_infoItemIcon___XxKy"><path d="m16.276 14.12-3.346-2.51V6.496a.929.929 0 1 0-1.86 0v5.577c0 .293.138.57.372.744l3.718 2.788a.925.925 0 0 0 .557.186.922.922 0 0 0 .745-.373.928.928 0 0 0-.186-1.3Z" fill="currentColor"></path><path d="M12 0C5.383 0 0 5.383 0 12s5.383 12 12 12 12-5.383 12-12S18.617 0 12 0Zm0 22.141c-5.591 0-10.141-4.55-10.141-10.141S6.409 1.859 12 1.859c5.592 0 10.141 4.55 10.141 10.141S17.591 22.141 12 22.141Z" fill="currentColor"></path></svg>