<svg viewBox="0 0 18 18" fill="none" xmlns="http://www.w3.org/2000/svg" width="22" height="22" data-testid="roz-logo-hexagon" color="white"><path fill-rule="evenodd" clip-rule="evenodd" d="M9.25 0c-.664 0-1.328.156-1.936.47h-.002L2.084 3.175a2.479 2.479 0 0 0-1.334 2.2v7.25c0 .925.516 1.775 1.334 2.199l5.228 2.706h.001a4.232 4.232 0 0 0 3.874 0h.002l5.228-2.706a2.477 2.477 0 0 0 1.333-2.199v-7.25c0-.925-.515-1.775-1.333-2.199h-.001L11.189.47h-.001A4.232 4.232 0 0 0 9.25 0Zm0 1.35c.455 0 .91.106 1.326.32l5.225 2.705.001.001c.373.193.606.576.606.999v7.25c0 .422-.233.806-.607 1l-5.226 2.704a2.892 2.892 0 0 1-2.648.001h-.002l-5.226-2.705v-.001a1.12 1.12 0 0 1-.607-.999v-7.25c0-.423.233-.806.607-1l5.227-2.704c.416-.215.87-.322 1.324-.322Zm0 1.35c-.245 0-.49.057-.713.171L3.799 5.324a.674.674 0 0 0-.365.599v6.153c0 .253.14.485.364.6l4.744 2.455a1.56 1.56 0 0 0 1.423-.004l4.737-2.451a.673.673 0 0 0 .364-.6V5.924a.675.675 0 0 0-.364-.6L9.961 2.869a1.556 1.556 0 0 0-.711-.17Zm2.685 2.702H6.79v1.09h2.908L6.566 9.11v1.09h3.356L6.79 12.598h2.237l2.908-2.18V9.108H8.579l3.356-2.617v-1.09Z" fill="currentColor"></path></svg>