<svg viewBox="0 0 18 18" fill="none" xmlns="http://www.w3.org/2000/svg" width="22" height="22" data-testid="pencil" color="white"><path d="m15.775 13.65-.708.775a1.92 1.92 0 0 1-1.417.642 1.92 1.92 0 0 1-1.416-.642 1.923 1.923 0 0 0-1.417-.64c-.531 0-1.04.23-1.417.64m-6.375.642h1.186c.347 0 .52 0 .683-.04.144-.034.283-.091.41-.17.142-.087.265-.21.51-.454l8.898-8.899a1.503 1.503 0 0 0-2.124-2.125l-8.9 8.899c-.244.245-.367.367-.454.51a1.416 1.416 0 0 0-.17.41c-.039.163-.039.336-.039.683v1.186Z" stroke="currentColor" stroke-width="1.3" stroke-linecap="round" stroke-linejoin="round"></path></svg>