<svg
        width="150"
        height="80"
        fill="none"
        xmlns="http://www.w3.org/2000/svg"
>
    <path
            d="M52.739 48.703V30.042c0-7.197-5.87-13.055-13.08-13.055H20.961c-7.21 0-13.08 5.858-13.08 13.055v18.661c0 6.778 5.115 12.301 11.739 12.97l13.75-11.129H18.53v-5.356l14.673-11.966H19.117v-5.105h22.89v5.356L27.334 45.439h14.673v5.356l-13.5 10.962H39.66c7.21 0 13.08-5.857 13.08-13.054ZM63.89 25.272h3.438c1.51 0 2.6.92 2.6 2.51 0 1.507-1.09 2.51-2.6 2.427h-2.347v3.264h-1.09v-8.201Zm3.27 3.933c1.09 0 1.761-.502 1.761-1.506s-.67-1.507-1.76-1.507h-2.18v3.013h2.18ZM73.533 27.448c1.51 0 2.767 1.255 2.767 3.012 0 1.758-1.258 3.096-2.767 3.013-1.51 0-2.767-1.255-2.767-3.013-.084-1.673 1.174-3.012 2.767-3.012Zm0 5.272c1.006 0 1.76-.837 1.76-2.176 0-1.339-.754-2.176-1.76-2.176h-.084c-1.006 0-1.76.837-1.76 2.176 0 1.339.754 2.176 1.76 2.176h.084ZM80.156 27.448c1.342 0 2.264.753 2.348 2.008h-1.006c-.084-.335-.168-.67-.42-.837-.25-.25-.502-.334-.838-.334h-.084c-1.09 0-1.76 1.004-1.76 2.175 0 1.172.587 2.26 1.76 2.176h.084c.336 0 .67-.084.839-.335.251-.25.419-.502.419-.837h1.006c-.168 1.256-1.09 2.009-2.348 2.009-1.76 0-2.767-1.34-2.767-3.013 0-1.673 1.007-3.012 2.767-3.012ZM86.361 27.448c1.342 0 2.264.753 2.348 2.008h-1.006c-.084-.335-.168-.67-.42-.837-.251-.25-.502-.334-.838-.334h-.084c-1.09 0-1.76 1.004-1.76 2.175 0 1.172.586 2.26 1.76 2.176h.084c.336 0 .67-.084.839-.335.251-.25.419-.502.419-.837h1.006c-.168 1.256-1.09 2.009-2.348 2.009-1.76 0-2.767-1.34-2.767-3.013 0-1.673 1.007-3.012 2.767-3.012ZM95.333 27.615v5.858h-1.007v-4.77l-2.85 4.77h-1.342v-5.858h1.006v4.77l2.935-4.77h1.258ZM102.376 27.615v5.858h-1.007v-4.77l-2.85 4.77h-1.342v-5.858h1.006v4.854l2.935-4.854h1.258Zm-3.522-2.343c.084.586.335.92.838.92.504 0 .839-.334.839-.92h.838c0 1.088-.67 1.506-1.76 1.506-1.09 0-1.761-.502-1.761-1.506h1.006ZM106.568 27.448c1.341 0 2.264.753 2.347 2.008h-1.006c-.084-.335-.167-.67-.419-.837-.251-.25-.503-.334-.838-.334h-.084c-1.09 0-1.761 1.004-1.761 2.175 0 1.172.587 2.26 1.761 2.176h.084c.335 0 .67-.084.838-.335.252-.25.419-.502.419-.837h1.006c-.167 1.256-1.09 2.009-2.347 2.009-1.761 0-2.767-1.34-2.767-3.013 0-1.673 1.09-3.012 2.767-3.012ZM112.437 30.628l-1.09 1.004v1.84h-1.006v-5.857h1.006v2.845l2.935-2.845h1.174l-2.348 2.26 2.515 3.598h-1.257l-1.929-2.845ZM118.725 27.448c1.51 0 2.767 1.255 2.767 3.012 0 1.758-1.257 3.096-2.767 3.013-1.509 0-2.767-1.255-2.767-3.013 0-1.673 1.258-3.012 2.767-3.012Zm.084 5.272c1.006 0 1.761-.837 1.761-2.176 0-1.339-.755-2.176-1.761-2.176h-.084c-1.006 0-1.76.837-1.76 2.176 0 1.339.754 2.176 1.76 2.176h.084ZM125.349 27.448c1.51 0 2.432 1.088 2.432 2.594v.586h-4.109c0 1.339.923 2.092 1.677 2.092h.084c.671 0 1.174-.335 1.342-1.005h1.006c-.252 1.172-1.174 1.841-2.432 1.841-1.509 0-2.767-1.087-2.683-3.096-.084-1.924 1.258-3.012 2.683-3.012Zm1.426 2.427c0-1.005-.671-1.507-1.426-1.507h-.083c-.671 0-1.426.419-1.594 1.507h3.103ZM66.154 37.573c1.51 0 2.767 1.255 2.767 3.013 0 1.757-1.258 3.096-2.767 3.012-1.509 0-2.767-1.255-2.767-3.012-.083-1.758 1.258-3.096 2.767-3.013Zm.084 5.188c1.006 0 1.76-.836 1.76-2.175 0-1.34-.754-2.176-1.76-2.176h-.084c-1.006 0-1.76.837-1.76 2.176 0 1.339.754 2.175 1.76 2.175h.084ZM70.347 37.992c.084-.586.251-1.005.503-1.34.419-.502 1.09-.752 2.012-.752h1.342c.419 0 .587-.084.587-.419v-.167h.922v.334c0 .837-.336 1.172-1.342 1.172h-1.509c-1.341 0-1.76.67-1.845 2.26.42-.586 1.258-1.088 2.097-1.088 1.425 0 2.599 1.087 2.599 2.761 0 1.674-1.174 3.013-2.767 3.013-1.845 0-2.767-1.34-2.767-3.515 0-1.004.084-1.757.168-2.26Zm2.683 4.853c1.006 0 1.677-.92 1.677-2.176 0-1.171-.671-2.008-1.677-2.008h-.084c-1.006 0-1.76.837-1.76 1.925 0 1.255.754 2.26 1.844 2.26ZM86.193 42.678v2.427h-.922v-1.59h-8.133v-5.858h1.006v5.02h2.516v-5.02h1.006v5.02h2.515v-5.02h1.006v5.02h1.006ZM89.631 37.573c1.51 0 2.432 1.088 2.432 2.594v.586h-4.109c0 1.339.922 2.092 1.677 2.092h.084c.67 0 1.174-.334 1.341-1.004h1.007c-.252 1.172-1.174 1.841-2.432 1.841-1.51 0-2.767-1.088-2.683-3.096 0-2.009 1.342-3.096 2.683-3.013Zm1.51 2.343c0-1.004-.671-1.506-1.426-1.506h-.084c-.67 0-1.425.418-1.593 1.506h3.102ZM96.004 37.573c1.341 0 2.263.753 2.347 2.008h-1.006c-.084-.334-.168-.669-.42-.836-.25-.251-.502-.335-.838-.335h-.084c-1.09 0-1.76 1.004-1.76 2.176 0 1.171.587 2.26 1.76 2.175h.084c.336 0 .671-.083.839-.334.251-.251.419-.502.419-.837h1.006c-.168 1.255-1.09 2.008-2.347 2.008-1.761 0-2.767-1.339-2.767-3.012 0-1.758 1.006-3.096 2.767-3.013ZM103.885 38.494h-1.929v5.02h-1.006v-5.02h-1.928v-.837h4.863v.837ZM104.975 37.657h2.767c1.174 0 1.844.67 1.844 1.506 0 .67-.419 1.172-1.09 1.423.587.083 1.258.586 1.258 1.339 0 .92-.838 1.673-1.928 1.673h-2.851v-5.941Zm2.683 2.51c.587 0 1.006-.334 1.006-.92 0-.502-.419-.837-1.09-.837h-1.509v1.757h1.593Zm-.084 2.594c.755 0 1.174-.334 1.174-.92 0-.502-.419-.837-1.09-.837h-1.677v1.841h1.593v-.084ZM113.611 37.573c1.509 0 2.767 1.255 2.767 3.013 0 1.757-1.258 3.096-2.767 3.012-1.509 0-2.767-1.255-2.767-3.012 0-1.758 1.258-3.096 2.767-3.013Zm.084 5.188c1.006 0 1.761-.836 1.761-2.175 0-1.34-.755-2.176-1.761-2.176h-.084c-1.006 0-1.761.837-1.761 2.176 0 1.339.755 2.175 1.761 2.175h.084ZM69.424 50.042c.252.334.42.67.42 1.171 0 1.507-1.258 2.51-3.187 2.51-2.096 0-3.27-1.003-3.353-2.844h1.593c.167.92.754 1.422 1.844 1.422 1.006 0 1.51-.418 1.51-1.088 0-.67-.504-1.004-1.426-1.004h-1.09v-1.422h1.006c.922 0 1.425-.419 1.425-1.088 0-.586-.503-1.005-1.425-1.005-.503 0-.922.168-1.257.419-.252.251-.42.586-.504 1.088h-1.593c0-.419.168-.837.336-1.34.251-.417.587-.836 1.09-1.087a4.004 4.004 0 0 1 1.844-.418c2.013 0 3.103.92 3.103 2.343 0 .837-.504 1.506-1.426 1.757.42.084.755.251 1.09.586ZM71.185 47.699h1.51v2.26h2.263v-2.26h1.51v5.858h-1.51V51.13h-2.264v2.426h-1.51V47.7ZM77.725 50.628c0-2.009 1.174-3.097 2.516-3.013.838 0 1.509.418 1.76.92V47.7h1.51v5.858H82v-.837c-.335.502-.922.92-1.76.92-1.174.084-2.516-1.004-2.516-3.012Zm2.935 1.84c.754 0 1.341-.669 1.341-1.84 0-1.172-.587-1.841-1.341-1.841h-.084c-.755 0-1.342.753-1.342 1.84 0 1.005.587 1.842 1.342 1.842h.084ZM85.103 47.699h1.594v2.26h2.263v-2.26h1.51v5.858h-1.51V51.13h-2.263v2.426h-1.594V47.7ZM97.764 47.699v5.858h-1.51v-4.185l-2.18 4.184h-2.011V47.7h1.509v4.184l2.096-4.184h2.096ZM99.022 50.628c0-1.758 1.09-3.097 2.767-3.013 1.677 0 2.683 1.255 2.683 3.013v.585h-3.941c.084.754.671 1.34 1.342 1.34h.083c.587 0 .923-.335 1.007-.754h1.509c-.252 1.172-1.258 2.008-2.683 2.008-1.51-.083-2.851-1.255-2.767-3.18Zm3.941-.67c0-.67-.587-1.088-1.174-1.088h-.084c-.671 0-1.174.419-1.174 1.088h2.432Z"
            fill="#231F20"
    />
</svg>