<svg width="28" height="28" viewBox="0 0 28 28" fill="none" xmlns="http://www.w3.org/2000/svg">
<path fill-rule="evenodd" clip-rule="evenodd" d="M10.7249 11.5439C10.7249 10.6754 11.0699 9.84243 11.6841 9.22828C12.2982 8.61413 13.1312 8.2691 13.9997 8.2691C14.8683 8.2691 15.7012 8.61413 16.3154 9.22828C16.9295 9.84243 17.2746 10.6754 17.2746 11.5439C17.2746 12.4125 16.9295 13.2454 16.3154 13.8596C15.7012 14.4737 14.8683 14.8188 13.9997 14.8188C13.1312 14.8188 12.2982 14.4737 11.6841 13.8596C11.0699 13.2454 10.7249 12.4125 10.7249 11.5439V11.5439ZM17.1305 15.3288C17.9095 14.6844 18.4707 13.8153 18.7374 12.8401C19.0042 11.8649 18.9636 10.8311 18.6212 9.8799C18.2787 8.92865 17.6511 8.10624 16.8239 7.52489C15.9967 6.94355 15.0103 6.63159 13.9993 6.63159C12.9883 6.63159 12.0019 6.94355 11.1747 7.52489C10.3476 8.10624 9.71993 8.92865 9.37746 9.8799C9.035 10.8311 8.99439 11.8649 9.26117 12.8401C9.52796 13.8153 10.0892 14.6844 10.8682 15.3288C8.2573 16.2482 6.63135 18.2958 6.63135 20.5497C6.63135 20.7669 6.7176 20.9751 6.87114 21.1286C7.02468 21.2822 7.23292 21.3684 7.45006 21.3684C7.66719 21.3684 7.87543 21.2822 8.02897 21.1286C8.18251 20.9751 8.26876 20.7669 8.26876 20.5497C8.26876 18.6913 10.1968 16.4562 13.9997 16.4562C17.8026 16.4562 19.7307 18.6913 19.7307 20.5497C19.7307 20.7669 19.8169 20.9751 19.9705 21.1286C20.124 21.2822 20.3323 21.3684 20.5494 21.3684C20.7665 21.3684 20.9748 21.2822 21.1283 21.1286C21.2818 20.9751 21.3681 20.7669 21.3681 20.5497C21.3681 18.2958 19.7438 16.2482 17.1305 15.3288Z" fill="white"/>
</svg>
