<svg width="18" height="14" viewBox="0 0 18 14" fill="none" xmlns="http://www.w3.org/2000/svg">
<g clip-path="url(#clip0_139_361)">
<path fill-rule="evenodd" clip-rule="evenodd" d="M3.18391 0.912403C1.412 1.10215 0.0333294 2.53949 -0.081254 4.31874C-0.137171 5.19507 -0.166504 6.09065 -0.166504 6.99999C-0.166504 7.90932 -0.137171 8.8049 -0.081254 9.68124C0.0333294 11.4605 1.412 12.8978 3.18391 13.0867C5.02183 13.2727 6.97525 13.3727 9.00016 13.3727C11.0251 13.3727 12.9785 13.2727 14.8164 13.0876C16.5883 12.8978 17.967 11.4605 18.0816 9.68124C18.1375 8.8049 18.1668 7.90932 18.1668 6.99999C18.1668 6.09065 18.1375 5.19507 18.0816 4.31874C17.967 2.53949 16.5883 1.10215 14.8164 0.91332C12.9785 0.727236 11.0251 0.627319 9.00016 0.627319C6.97525 0.627319 5.02183 0.727236 3.18391 0.912403ZM7.30078 9.74541L11.8007 6.99999L7.30078 4.25458V9.74541Z" fill="white"/>
</g>
<defs>
<clipPath id="clip0_139_361">
<rect width="18" height="14" fill="white"/>
</clipPath>
</defs>
</svg>
