<svg width="18" height="11" viewBox="0 0 18 11" fill="none" xmlns="http://www.w3.org/2000/svg">
<path fill-rule="evenodd" clip-rule="evenodd" d="M14.9524 5.16713C14.9524 5.16713 17.325 1.82138 17.5601 0.72225C17.6389 0.329625 17.4656 0.11025 17.0573 0.11025C17.0573 0.11025 15.6915 0.11025 14.9996 0.11025C14.5282 0.11025 14.3561 0.313875 14.2144 0.612C14.2144 0.612 13.1017 2.98238 11.7484 4.47638C11.3141 4.959 11.0936 5.10412 10.8529 5.10412C10.6594 5.10412 10.5705 4.94325 10.5705 4.50787V0.69075C10.5705 0.1575 10.5075 0 10.0676 0H6.77026C6.51826 0 6.36076 0.14625 6.36076 0.345375C6.36076 0.84825 7.13138 0.961875 7.13138 2.32425V5.13562C7.13138 5.7015 7.09987 5.92088 6.83212 5.92088C6.12562 5.92088 4.44488 3.48638 3.50213 0.72225C3.31426 0.1575 3.10949 0 2.57624 0H0.518623C0.219373 0 0 0.203624 0 0.502874C0 1.05187 0.643508 3.59662 3.17251 7.00537C4.86901 9.29812 7.09988 10.539 9.11026 10.539C10.3354 10.539 10.6335 10.3354 10.6335 9.81675V8.05725C10.6335 7.61738 10.8067 7.4295 11.0576 7.4295C11.34 7.4295 11.8395 7.5195 13.005 8.67038C14.3876 9.98888 14.4821 10.539 15.2359 10.539H17.5444C17.7806 10.539 18 10.4287 18 10.0361C18 9.51862 17.325 8.59163 16.2877 7.4925C15.8636 6.92662 15.1729 6.3135 14.9524 6.03113C14.6385 5.7015 14.733 5.5125 14.9524 5.16713Z" fill="white"/>
</svg>
