<svg width="26" height="26" viewBox="0 0 26 26" fill="none" xmlns="http://www.w3.org/2000/svg">
<path d="M13 0L14.8385 11.1615L26 13L14.8385 14.8385L13 26L11.1615 14.8385L4.14339e-06 13L11.1615 11.1615L13 0Z" fill="#D3B97A"/>
<path fill-rule="evenodd" clip-rule="evenodd" d="M12.9986 3.07258C7.51595 3.07258 3.07136 7.51717 3.07136 12.9999C3.07136 18.4825 7.51595 22.9271 12.9986 22.9271C18.4813 22.9271 22.9259 18.4825 22.9259 12.9999C22.9259 7.51717 18.4813 3.07258 12.9986 3.07258ZM2.59863 12.9999C2.59863 7.25609 7.25487 2.59985 12.9986 2.59985C18.7424 2.59985 23.3986 7.25609 23.3986 12.9999C23.3986 18.7436 18.7424 23.3998 12.9986 23.3998C7.25487 23.3998 2.59863 18.7436 2.59863 12.9999Z" fill="#D3B97A"/>
</svg>
