<svg width="26" height="26" viewBox="0 0 26 26" fill="none" xmlns="http://www.w3.org/2000/svg">
<path d="M17.1238 0.755788C18.5431 1.65219 16.2318 2.22342 15.9594 2.28494C12.7209 3.03634 7.78634 2.23221 8.52016 1.07656C8.6432 0.883218 9.04746 0.5229 10.4052 0.259253C10.6601 0.210918 11.0072 0.153794 11.2621 0.114247C11.7103 0.0615177 11.7103 0.0615177 11.93 0.0439412C12.3299 0.0175765 12.3299 0.0175765 12.5276 0.00878824C12.9099 0 12.9099 0 13.0988 0C13.4767 0.00878824 13.4767 0.00878824 13.6613 0.0175765C14.0436 0.0395471 14.0524 0.0439412 14.2501 0.0615177C14.6587 0.105459 14.6763 0.109853 14.896 0.140612C15.3662 0.215312 15.3838 0.219706 15.6386 0.272435L15.9155 0.333953C16.2846 0.421835 16.702 0.527294 17.1238 0.755788C15.8496 0.413047 14.4654 0.320771 13.0197 0.514112C14.4654 0.320771 15.8496 0.417441 17.1238 0.755788Z" fill="#D3B97A"/>
<path d="M19.409 1.69182C19.0575 1.4897 18.6884 1.31393 18.3105 1.15574C18.1787 1.08544 17.9985 1.00195 17.8579 0.94043C18.7323 1.32272 18.8026 1.35787 19.409 1.69182Z" fill="#D3B97A"/>
<path d="M19.4089 1.69182C20.2657 2.21911 20.8326 2.56625 21.8168 3.44947L22.1288 3.74387C23.3548 4.94786 21.3598 6.25291 17.1854 6.81097C12.4881 7.44372 6.81531 6.89446 4.5128 5.58501C3.44063 4.97423 3.28684 4.30632 3.90641 3.70433L4.21839 3.40992C5.05767 2.68929 5.18949 2.57943 5.96725 2.06093C6.55606 1.705 7.16245 1.34029 8.06764 0.962397L8.20386 0.905273C6.01998 1.83683 7.7249 2.61459 8.30053 2.8299C12.0311 4.22723 19.8131 3.32643 18.842 1.60833C18.719 1.39302 18.4861 1.24801 18.3103 1.14256C18.6926 1.31393 19.0573 1.49409 19.4089 1.69182Z" fill="#D3B97A"/>
<path d="M23.2668 5.03123C24.0094 6.06385 24.0534 6.12537 24.4269 6.80646C25.0069 7.98408 25.0333 8.02802 25.2837 8.74866L25.3936 9.07822C25.833 10.458 23.2273 11.8333 18.4772 12.4705C12.3123 13.301 4.85985 12.5803 1.8367 10.8622C0.799688 10.2734 0.417399 9.64506 0.615135 9.03428L0.724988 8.70472C1.20834 7.48315 1.22592 7.43482 1.59063 6.76252C2.25414 5.6508 2.28051 5.60686 2.75946 4.99169L2.87371 4.85107C2.37278 5.47065 2.60128 6.13855 3.68662 6.75373C6.21324 8.1906 12.4353 8.7926 17.5896 8.09833C21.9881 7.50512 24.1808 6.16492 23.1614 4.89062L23.2668 5.03123Z" fill="#D3B97A"/>
<path d="M25.8198 10.8271C25.9912 12.1849 26 12.2376 26 13.0198C25.9429 14.3951 25.9385 14.4786 25.7891 15.3443L25.7627 15.4761C25.521 16.7196 22.9329 17.8841 18.6223 18.4641C12.2816 19.3166 4.62701 18.574 1.51597 16.8119C0.733818 16.3681 0.311982 15.8979 0.2241 15.4366C0.0351529 14.1491 0.0131824 13.9821 0 12.9802C0.0571235 11.5785 0.0615177 11.5478 0.188947 10.7876L0.237282 10.5239C0.123035 11.1083 0.531688 11.7103 1.52915 12.2772C4.63579 14.0436 12.2947 14.7818 18.6355 13.9294C23.3767 13.2922 26.0352 11.9432 25.7759 10.5635L25.8198 10.8271Z" fill="#D3B97A"/>
<path d="M25.2267 17.4184C24.7302 18.6356 24.7126 18.6839 24.3435 19.3518C23.6668 20.4547 23.6404 20.4987 23.1571 21.1139L23.1263 21.149C22.4628 21.9707 20.503 22.7045 17.559 23.1C12.409 23.7943 6.18258 23.1923 3.65596 21.7554C3.28686 21.5445 3.01882 21.3292 2.84305 21.1139C2.56183 20.7316 2.18833 20.2175 1.92907 19.8176C1.28753 18.6795 1.26117 18.6356 0.966763 17.9281C0.85691 17.6293 0.698721 17.2295 0.602051 16.9263C0.733874 17.3393 1.13374 17.748 1.82801 18.1434C4.85116 19.8615 12.2992 20.5822 18.4685 19.7517C22.5199 19.2068 25.007 18.1303 25.3805 16.9658L25.2267 17.4184Z" fill="#D3B97A"/>
<path d="M21.6805 22.6735C20.8368 23.381 20.705 23.4909 19.914 24.0094C19.3032 24.3697 18.7276 24.708 17.8268 25.0727C17.2732 25.2924 16.513 25.4814 15.577 25.6044C12.9274 25.9603 9.7724 25.7143 8.14218 25.0552C7.3073 24.6904 7.20184 24.6421 6.59105 24.3038C5.70344 23.7589 5.51889 23.6446 4.73674 23.0295C4.47748 22.7966 4.12595 22.4934 3.87549 22.2517C4.02928 22.4011 4.23141 22.5461 4.48188 22.6911C6.7844 24.0006 12.4572 24.5498 17.1545 23.9171C19.6592 23.5787 21.3817 22.9767 22.0935 22.2869L21.6805 22.6735Z" fill="#D3B97A"/>
<path d="M14.7335 25.8857C14.2853 25.9385 14.2853 25.9385 14.0655 25.956C13.6657 25.9824 13.6657 25.9824 13.4679 25.9912C13.0901 26 13.0901 26 12.9011 26C12.5232 25.9912 12.5232 25.9912 12.3387 25.9824C11.9564 25.9604 11.9476 25.956 11.7498 25.9385C11.3324 25.8945 11.3236 25.8901 11.1039 25.8594C10.6337 25.7847 10.6162 25.7803 10.3613 25.7275L10.0845 25.666C11.7982 26.0263 13.8634 26.0527 15.6123 25.7319C15.0454 25.8418 14.9883 25.8506 14.7335 25.8857Z" fill="#D3B97A"/>
</svg>
