<svg width="26" height="27" viewBox="0 0 26 27" fill="none" xmlns="http://www.w3.org/2000/svg">
<path d="M25 13.2832C25 19.9106 19.6274 25.2832 13 25.2832C6.37258 25.2832 1 19.9106 1 13.2832C1 6.65579 6.37258 1.2832 13 1.2832C19.6274 1.2832 25 6.65579 25 13.2832Z" stroke="#D3B97A" stroke-width="2"/>
<path d="M17.0678 13.2832C17.0678 15.5298 15.2466 17.351 13 17.351C10.7534 17.351 8.9322 15.5298 8.9322 13.2832C8.9322 11.0366 10.7534 9.21541 13 9.21541C15.2466 9.21541 17.0678 11.0366 17.0678 13.2832Z" stroke="#D3B97A" stroke-width="2"/>
<path d="M21.1356 13.2832C21.1356 17.7764 17.4932 21.4188 13 21.4188C8.50684 21.4188 4.86441 17.7764 4.86441 13.2832C4.86441 8.79004 8.50684 5.14761 13 5.14761C17.4932 5.14761 21.1356 8.79004 21.1356 13.2832Z" stroke="#D3B97A" stroke-width="2"/>
</svg>
