<svg width="14" height="14" viewBox="0 0 14 14" fill="none" xmlns="http://www.w3.org/2000/svg" data-testid="edit" color="white"><path d="m12.405 4.027-.884.854-2.21-2.137.884-.853a.5.5 0 0 1 .674 0l1.536 1.486a.45.45 0 0 1 0 .65Zm-7.387 7.141-2.21-2.137 5.714-5.525 2.21 2.137-5.714 5.525Zm-2.721-1.107 1.654 1.6-2.304.627.65-2.227Zm10.897-7.446L11.657 1.13c-.3-.29-1.383-.838-2.248 0L1.623 8.652a.514.514 0 0 0-.142.234L.308 12.92a.535.535 0 0 0 .141.527c.142.14.426.164.546.137l4.176-1.135a.541.541 0 0 0 .242-.137l7.78-7.523c.62-.598.62-1.573 0-2.174Z" fill="currentColor"></path></svg>