<svg xmlns="http://www.w3.org/2000/svg" width="80" height="80" fill="none" color="#D3B97A" data-testid="arrow-in-circle" viewBox="0 0 86 85" class="PastYear_laureates_arrow__Rplcq"><path fill="currentColor" d="M30.265 31.348a1.541 1.541 0 0 1 .465-1.105 1.59 1.59 0 0 1 1.122-.457h22.405a1.5 1.5 0 0 1 .844.316c.09.058.17.131.237.216.248.274.386.629.388.997v21.972a1.54 1.54 0 0 1-.4 1.207 1.587 1.587 0 0 1-1.179.516 1.608 1.608 0 0 1-1.178-.516 1.558 1.558 0 0 1-.4-1.207V35.005L32.966 54.383a1.554 1.554 0 0 1-1.114.465 1.54 1.54 0 0 1-1.114-.465 1.527 1.527 0 0 1-.471-1.097 1.509 1.509 0 0 1 .47-1.097L50.34 32.894H31.768a1.598 1.598 0 0 1-1.063-.48 1.55 1.55 0 0 1-.44-1.066Z"></path><path stroke="currentColor" d="M84.949 42.398c0 22.938-18.777 41.54-41.95 41.54-23.172 0-41.948-18.602-41.948-41.54S19.827.858 43 .858c23.172 0 41.949 18.602 41.949 41.54Z"></path></svg>