<svg viewBox="0 0 22 26" fill="none" xmlns="http://www.w3.org/2000/svg" width="24" height="24" data-testid="location" class="EventsPlacesFilter_filterLocation__XC6MK"><path d="M18.071 3.973A9.86 9.86 0 0 0 11 1a9.86 9.86 0 0 0-7.071 2.973A10.162 10.162 0 0 0 1 11.151c0 5.485 5.11 10.047 7.854 12.498.381.34.71.634.973.883a1.7 1.7 0 0 0 2.346 0c.262-.248.592-.543.973-.883C15.891 21.198 21 16.636 21 11.15c0-2.712-1.04-5.26-2.929-7.178Zm-5.84 18.62c-.39.348-.726.649-1.004.912a.33.33 0 0 1-.454 0 47.783 47.783 0 0 0-1.004-.912C7.189 20.29 2.385 16 2.385 11.151c0-4.822 3.865-8.745 8.615-8.745s8.615 3.923 8.615 8.745c0 4.849-4.803 9.138-7.384 11.442Z" fill="currentColor" stroke="currentColor" stroke-width="0.8"></path><path d="M11.001 6.294c-2.43 0-4.407 2.006-4.407 4.473s1.977 4.474 4.407 4.474c2.43 0 4.407-2.007 4.407-4.474s-1.977-4.473-4.407-4.473Zm0 7.54c-1.666 0-3.022-1.375-3.022-3.067 0-1.691 1.356-3.067 3.022-3.067 1.667 0 3.022 1.376 3.022 3.067 0 1.692-1.355 3.068-3.022 3.068Z" fill="currentColor" stroke="currentColor" stroke-width="0.8"></path></svg>