<svg
        width="16"
        height="10"
        viewBox="0 0 18 18"
        fill="none"
        xmlns="http://www.w3.org/2000/svg"
        data-testid="eye"
        color="#d7dadf"
>
    <path
            d="M17.886 8.65C17.725 8.43 13.893 3.264 9 3.264 4.106 3.264.275 8.43.114 8.65a.594.594 0 0 0 0 .7c.16.22 3.992 5.386 8.886 5.386 4.893 0 8.725-5.166 8.886-5.386a.593.593 0 0 0 0-.7ZM9 13.55c-3.605 0-6.727-3.43-7.65-4.55C2.271 7.878 5.387 4.45 9 4.45c3.604 0 6.726 3.429 7.65 4.55-.922 1.122-4.038 4.55-7.65 4.55Z"
            fill="#666C77"
    />
    <path
            d="M9 5.44A3.565 3.565 0 0 0 5.44 9 3.565 3.565 0 0 0 9 12.56 3.565 3.565 0 0 0 12.56 9 3.565 3.565 0 0 0 9 5.44Zm0 5.933A2.376 2.376 0 0 1 6.626 9 2.376 2.376 0 0 1 9 6.626 2.376 2.376 0 0 1 11.373 9 2.376 2.376 0 0 1 9 11.373Z"
            fill="#666C77"
    />
</svg>