<svg width="24" height="25" viewBox="0 0 24 25" fill="none" xmlns="http://www.w3.org/2000/svg">
<path d="M24 12.2832C16 12.2832 12 8.2832 12 0.283203C12 8.2832 8 12.2832 -5.24537e-07 12.2832C8 12.2832 12 16.2832 12 24.2832C12 16.2832 16 12.2832 24 12.2832Z" fill="#D3B97A"/>
<path d="M12 0.283203C12 8.2832 16 12.2832 24 12.2832M24 12.2832C16 12.2832 12 16.2832 12 24.2832M-8.82165e-07 12.2832C8 12.2832 12 8.2832 12 0.283203M12 24.2832C12 16.2832 8 12.2832 -8.82165e-07 12.2832" stroke="#D3B97A" stroke-width="2"/>
</svg>
